<svg xmlns="http://www.w3.org/2000/svg" width="15" height="10" viewBox="0 0 15 10">
    <path fill="#333" fill-rule="evenodd" d="M9.016 6.317a.977.977 0 0 1-.09.004L7.77 6.32l-1.157.002a.977.977 0 0 1-.089-.004l-2.589-.004L5.73 8.107a.982.982 0 0 1 .006 1.39.982.982 0 0 1-1.39-.006L.864 6.01a.992.992 0 0 1-.29-.696c0-.261.102-.51.285-.693l3.464-3.464a.975.975 0 0 1 .95-.255c.34.092.607.36.7.7a.975.975 0 0 1-.256.95L3.908 4.358l3.862.006 3.862-.006L9.824 2.55a.975.975 0 0 1-.255-.949.994.994 0 0 1 .7-.7.975.975 0 0 1 .95.255l3.463 3.464a.973.973 0 0 1 .285.693c0 .26-.105.51-.29.696L11.194 9.49a.982.982 0 0 1-1.389.005.982.982 0 0 1 .006-1.389l1.794-1.794-2.59.004z" opacity=".4"/>
</svg>
