<svg xmlns="http://www.w3.org/2000/svg" width="18" height="18" viewBox="0 0 18 18">
    <defs>
        <linearGradient id="a" x1="30.539%" x2="66.406%" y1="117.679%" y2="-55.815%">
            <stop offset="0%" stop-color="#3F5CA6"/>
            <stop offset="100%" stop-color="#3D69D9"/>
        </linearGradient>
    </defs>
    <path fill="url(#a)" fill-rule="evenodd" d="M9.551 13.21l7.713-4.05a1.78 1.78 0 0 1 1.472 0l7.713 4.05c.735.385.735 1.016 0 1.402l-7.713 4.05a1.78 1.78 0 0 1-1.472 0l-7.713-4.05c-.735-.386-.735-1.017 0-1.403zm0 8.178l1.295-.68a.82.82 0 0 1 .761 0l5.282 2.77a2.594 2.594 0 0 0 2.235 0l5.276-2.767a.82.82 0 0 1 .76 0l1.289.677c.735.386.735 1.017 0 1.403l-7.713 4.05a1.78 1.78 0 0 1-1.472 0L9.55 22.79c-.735-.386-.735-1.017 0-1.403zm0-4.09l1.295-.68a.82.82 0 0 1 .761 0l5.282 2.771a2.594 2.594 0 0 0 2.235 0l5.276-2.767a.82.82 0 0 1 .76 0l1.289.676c.735.386.735 1.018 0 1.403l-7.713 4.05a1.78 1.78 0 0 1-1.472 0l-7.713-4.05c-.735-.385-.735-1.017 0-1.403z" transform="translate(-9 -9)"/>
</svg>
