<svg xmlns="http://www.w3.org/2000/svg" width="16" height="17" viewBox="0 0 16 17">
    <g fill="none" fill-rule="evenodd">
        <path stroke="#FFF" stroke-linecap="round" stroke-opacity=".7" stroke-width="1.5" d="M.7 9.5V17h15V9.5"/>
        <path fill="#FFF" d="M11.453 6.199L9.46 4.204l-.013 7.572a1.089 1.089 0 0 1-1.638.938 1.093 1.093 0 0 1-.543-.947l.012-7.586L5.25 6.208a1.094 1.094 0 0 1-1.84-.49c-.1-.38.01-.785.29-1.06L7.58.775a1.095 1.095 0 0 1 1.551 0l3.872 3.872a1.097 1.097 0 0 1-1.55 1.55z"/>
    </g>
</svg>
