<svg xmlns="http://www.w3.org/2000/svg" width="18" height="20" viewBox="0 0 18 20">
    <path fill="#FFF" fill-rule="nonzero" d="M17.919 13.393c-.667-3.57-1.317-7.145-1.968-10.718C15.669 1.132 14.438.009 12.918 0H5.082C3.562.009 2.33 1.132 2.049 2.675 1.398 6.248.75 9.822.081 13.393c-.49 2.622 1.296 4.883 3.888 4.888 1.677.003 3.354 0 5.031 0 1.677 0 3.354.003 5.031 0 2.592-.005 4.378-2.266 3.888-4.888zM6.623 1.633h4.754c.385 0 .697.32.697.717a.708.708 0 0 1-.697.717H6.623a.708.708 0 0 1-.697-.717c0-.397.312-.718.697-.718zM3.834 16.07c-.774.008-1.383-.605-1.385-1.393-.002-.798.59-1.417 1.36-1.42.754-.003 1.361.607 1.372 1.379.012.792-.584 1.427-1.347 1.434zm.082-4.435c-.689 0-1.014-.657-.887-1.349.228-1.244.476-2.485.718-3.727.069-.353.138-.706.215-1.057.115-.524.37-.723.898-.743h8.28c.527.02.783.219.898.743.077.351.146.704.215 1.057.242 1.242.49 2.482.718 3.727.127.692-.198 1.35-.887 1.35H3.916zm10.25 4.435c-.763-.007-1.36-.642-1.347-1.434.01-.772.618-1.382 1.372-1.379.77.003 1.362.622 1.36 1.42-.002.788-.611 1.4-1.385 1.393zM2.98 20H15.02v-.956H2.98V20z"/>
</svg>
