<svg xmlns="http://www.w3.org/2000/svg" xmlns:xlink="http://www.w3.org/1999/xlink" width="34" height="34" viewBox="0 0 34 34">
    <defs>
        <circle id="a" cx="17" cy="17" r="17"/>
    </defs>
    <g fill="none" fill-rule="evenodd">
        <g>
            <mask id="b" fill="#fff">
                <use xlink:href="#a"/>
            </mask>
            <use fill="#364E8D" fill-rule="nonzero" xlink:href="#a"/>
            <path stroke="#FFF" stroke-linecap="round" stroke-linejoin="round" d="M4.356 29.555l4.785-3.654 5.699 2.127 3.913-1.786 6.08.163 5.71-5.787 5.538.333" mask="url(#b)" transform="rotate(-11 20.218 25.086)"/>
        </g>
        <g transform="rotate(-9 56.972 -43.678)">
            <circle cx="9" cy="2" r="2" fill="#FFF" fill-rule="nonzero"/>
            <path fill="#FFF" fill-rule="nonzero" d="M6.9 4.4l2.6 2L8.2 11l1.7 2.3-.4.7-3.6-1.6c-.6-.5-.9-1.3-.7-2.1l1.7-5.9z"/>
            <path stroke="#FFF" stroke-linejoin="round" d="M15.359 5.09l-1.775 14.4"/>
            <path stroke="#FFF" stroke-width="2" d="M7 11l3 2c.4.5.6 1.1.6 1.7V18M6.6 5.3l1.3.4c.8.2 1.5.6 2.1 1.2l.8.8c1.307 1.938 2.663 1.14 4.044.64"/>
            <path fill="#FFF" fill-rule="nonzero" d="M5.2 20l2.3-6-2-.5L3.1 20zM2.2 10.7C1.3 10.4.7 9.4 1 8.5L2 5c.6-1.8 2.2-1.3 4-.8L4.4 9.5c-.3 1-1.2 1.5-2.2 1.2z"/>
        </g>
    </g>
</svg>
