<svg xmlns="http://www.w3.org/2000/svg" width="34" height="34" viewBox="0 0 34 34">
    <g fill="none" fill-rule="evenodd">
        <circle cx="17" cy="17" r="17" fill="#A63F3F" fill-rule="nonzero"/>
        <g transform="translate(9 7)">
            <circle cx="9" cy="2" r="2" fill="#FFF" fill-rule="nonzero"/>
            <path fill="#FFF" fill-rule="nonzero" d="M6.9 4.4l2.6 2L8.2 11l1.7 2.3-.8 1.7-3.2-2.6c-.6-.5-.9-1.3-.7-2.1l1.7-5.9z"/>
            <path stroke="#FFF" stroke-linejoin="round" d="M14.5 5v15"/>
            <path stroke="#FFF" stroke-width="2" d="M7 11l2.4 2.8c.4.5.6 1.1.6 1.7V20M6.6 5.3l1.3.4c.8.2 1.5.6 2.1 1.2l.8.8c.4.4.9.5 1.4.4l2.5-.5"/>
            <path fill="#FFF" fill-rule="nonzero" d="M5.2 20L7 15l-1.6-1.4L3.1 20zM2.2 10.7C1.3 10.4.7 9.4 1 8.5L2 5c.6-1.8 2.2-1.3 4-.8L4.4 9.5c-.3 1-1.2 1.5-2.2 1.2z"/>
        </g>
    </g>
</svg>
