<svg xmlns="http://www.w3.org/2000/svg" width="34" height="34" viewBox="0 0 34 34">
    <g fill="none" fill-rule="evenodd">
        <circle cx="17" cy="17" r="17" fill="#3F8FA6" fill-rule="nonzero"/>
        <g fill="#FFF" fill-rule="nonzero">
            <path d="M19.613 8.25c-.03 1.143-.997 2.054-2.113 1.99A2.069 2.069 0 0 1 15.564 8.2c-.005-1.126.944-2.08 2.057-2.067 1.121.012 2.023.972 1.992 2.117zM12.592 7.436a.809.809 0 0 0-1.167.206l-.911 1.381c-.261.396-.522 1.104-.58 1.575l-.528 4.33c-.058.47.28.91.748.977l1.978.284c.469.068.96-.25 1.09-.706l1.55-5.428c.13-.456-.075-1.06-.456-1.342l-1.724-1.277zM26.666 17.954a7.632 7.632 0 0 0-1.537-.663 7.562 7.562 0 0 0-1.654-.323c-.064-.004-.129-.005-.193-.008a.468.468 0 0 0-.157-.03.466.466 0 0 0-.125.02 5.949 5.949 0 0 0-2.917.715l-.013.007a.693.693 0 0 0-.065.04c-.306.215.47 1.322.777 1.108a4.743 4.743 0 0 1 1.873-.768v8.55a.47.47 0 1 0 .94 0v-8.636a6.974 6.974 0 0 1 2.762.557l.018.007a.323.323 0 0 0 .291-.576zM23.396 15.05l-6.498-4.04a1.285 1.285 0 0 0-1.834.53 1.592 1.592 0 0 0-.332.634l-1.105 4.264h3.314l.596-2.298 5.063 2.376a.835.835 0 0 0 .796-1.466zM19.388 20.695l-2.336-2.332h-3.45c-.043.069-.033.165-.034.307 0 .192.059.305.33.516l3.619 2.885v3.989a1.123 1.123 0 0 0 2.246 0v-4.528c0-.285-.11-.573-.328-.79l-.047-.047z"/>
            <path d="M6.131 23.032a.481.481 0 0 1-.056-.959c4.226-.505 6.524-4.85 6.547-4.894a.482.482 0 0 1 .427-.26h3.793l-.163.963H13.33c-.597 1.02-2.998 4.651-7.142 5.147a.551.551 0 0 1-.058.003zM14.527 21.644l-2.237 4.775a1.037 1.037 0 0 1-1.893-.849l2.08-4.845a1.123 1.123 0 1 1 2.05.919z"/>
        </g>
    </g>
</svg>
