<svg xmlns="http://www.w3.org/2000/svg" xmlns:xlink="http://www.w3.org/1999/xlink" width="34" height="34" viewBox="0 0 34 34">
    <defs>
        <circle id="a" cx="17" cy="17" r="17"/>
    </defs>
    <g fill="none" fill-rule="evenodd">
        <mask id="b" fill="#fff">
            <use xlink:href="#a"/>
        </mask>
        <use fill="#3FA689" fill-rule="nonzero" xlink:href="#a"/>
        <g stroke="#FFF" mask="url(#b)">
            <path stroke-width="2" d="M21 37l2.5-7 3.5-7.5v-11L32.5 4"/>
            <path d="M17 34l1-5.5 3-8 3-12 3.5-6M23 30l-5-1.5M27 22.5l-6-2M27 11l-3-2.5"/>
        </g>
        <g mask="url(#b)">
            <g transform="translate(8 6)">
                <path stroke="#FFF" stroke-width="2" d="M3 6c1.5 0 1.5-1 2.5.5H10l4-3"/>
                <circle cx="5" cy="2" r="2" fill="#FFF" fill-rule="nonzero"/>
                <path fill="#FFF" fill-rule="nonzero" d="M3 5l-.77 6.6c-.2.7-.4 1.4 0 1.9L4.5 13l1.53-6L4.5 6 3 5z"/>
                <g fill="#FFF" fill-rule="nonzero">
                    <path d="M9.1 18l1.9-.5-.5-8-5.5 1-.5 2.5L9 12z"/>
                    <path d="M9 22l-1.188-4.376L5 13.5l-2.202 1.169L6.1 18.658l.91 4.264z"/>
                </g>
            </g>
        </g>
    </g>
</svg>
