<svg xmlns="http://www.w3.org/2000/svg" xmlns:xlink="http://www.w3.org/1999/xlink" width="34" height="34" viewBox="0 0 34 34">
    <defs>
        <circle id="a" cx="17" cy="17" r="17"/>
    </defs>
    <g fill="none" fill-rule="evenodd">
        <mask id="b" fill="#fff">
            <use xlink:href="#a"/>
        </mask>
        <use fill="#496ABF" fill-rule="nonzero" xlink:href="#a"/>
        <g fill="#FFF" fill-rule="nonzero" mask="url(#b)">
            <g transform="translate(5 6)">
                <path d="M10.3 5.5l-2.6 3a.9.9 0 0 1-.7.3.8.8 0 0 1-.9-.8.6.6 0 0 1 .3-.6l2.8-3.2a.9.9 0 0 1 .7-.3H14a1.1 1.1 0 0 1 .8.3l2.6 2.6 2.2-2.2a1.1 1.1 0 0 1 .6-.2.9.9 0 0 1 .9.9 1.4 1.4 0 0 1-.2.6l-2.6 2.6c-.8.8-1.4.1-1.4.1L15.3 7l-2.5 2.9 2.3 2.3a1.1 1.1 0 0 1 .2 1.3L14 19.2a1.1 1.1 0 0 1-1.1.9 1.1 1.1 0 0 1-1.1-1.1v-.3l1.1-4.7-2.6-2.5L8.1 14a1.9 1.9 0 0 1-1.3.4H2.3a1.1 1.1 0 0 1-1.1-.8 1.1 1.1 0 0 1 .8-1.3h4.2L12 5.6l-1.7-.1z"/>
                <circle cx="16" cy="2" r="2"/>
                <path d="M21 22H3v-1h18v-1h1zM0 8h5v1H0z"/>
                <path d="M15.968 20.038l5.13-14.096.94.342-5.13 14.096zM7 19H5L.8 14l-.8.6L4.5 20H7z"/>
            </g>
        </g>
    </g>
</svg>
