<svg xmlns="http://www.w3.org/2000/svg" xmlns:xlink="http://www.w3.org/1999/xlink" width="34" height="34" viewBox="0 0 34 34">
    <defs>
        <circle id="a" cx="17" cy="17" r="17"/>
    </defs>
    <g fill="none" fill-rule="evenodd">
        <mask id="b" fill="#fff">
            <use xlink:href="#a"/>
        </mask>
        <use fill="#734815" fill-rule="nonzero" xlink:href="#a"/>
        <path stroke="#FFF" d="M5 32.5l6-3 7-1 3-2.5 6.5-.5 3.336-2.224L35 22.5" mask="url(#b)"/>
        <g mask="url(#b)">
            <g transform="translate(8 7)">
                <circle cx="11" cy="2" r="2" fill="#FFF" fill-rule="nonzero"/>
                <path fill="#FFF" fill-rule="nonzero" d="M16 10c1.625 0 3 1.375 3 3s-1.375 3-3 3-3-1.375-3-3 1.375-3 3-3zm0-1c-2.2 0-4 1.8-4 4s1.8 4 4 4 4-1.8 4-4-1.8-4-4-4zM4 13c1.625 0 3 1.375 3 3s-1.375 3-3 3-3-1.375-3-3 1.375-3 3-3zm0-1c-2.2 0-4 1.8-4 4s1.8 4 4 4 4-1.8 4-4-1.8-4-4-4zM9.6 12.1l-.1-1.8-3-1.3 2.7-3.3 3 .3-3.6-2.7c-.6-.5-1.4-.4-1.8.2-1 1.1-2.5 2.9-3.3 3.9-.9 1.1-.5 2.8.9 3.2l5.2 1.5z"/>
                <path stroke="#FFF" stroke-width="2" d="M15 7l-3.8-.4-3.3-2.5M11 16l-1.7-5-3.8-1.9"/>
                <path fill="#FFF" fill-rule="nonzero" d="M.8 6.8C.1 6.3.1 5.3.6 4.6L1.9 3c1-1.2 2.7-1.4 3.9-.4l.2.2-3 3.8c-.6.7-1.5.8-2.2.2z"/>
            </g>
        </g>
    </g>
</svg>
