<svg xmlns="http://www.w3.org/2000/svg" width="34" height="34" viewBox="0 0 34 34">
    <g fill="none" fill-rule="evenodd">
        <circle cx="17" cy="17" r="17" fill="#A67B3F" fill-rule="nonzero"/>
        <g transform="translate(4 5)">
            <path stroke="#FFF" stroke-width="2" d="M6 10.4s1.5-1.888 2.5-2.9c.573-.58.8-.6 1.5-.8l2.1-.6c1.2-.3 2.4.3 2.8 1.4.867 1.133 1.567 1.8 2.1 2l3.5.9"/>
            <circle cx="14" cy="2" r="2" fill="#FFF" fill-rule="nonzero"/>
            <path fill="#FFF" fill-rule="nonzero" d="M11.6 6.1l-1 4.6c-.2.7-.4 1.3 0 1.8l5.4 2-2.5-2.9.9-4.1-.7-1.4h-2.1z"/>
            <g fill="#FFF" fill-rule="nonzero">
                <path d="M17.6 21.5l1.9-.5c-.4-1-1.5-5.8-1.9-7L13 11.1l-1.6 1.2 4.8 2.9 1.4 6.3zM8 21l2.9-3.6L12 14l-1.8-.7-.9 2.9-2.9 3.3z"/>
            </g>
            <path stroke="#FFF" d="M7.5 11.5l-7 8M22 11L12 21.5"/>
        </g>
    </g>
</svg>
