<svg xmlns="http://www.w3.org/2000/svg" width="34" height="34" viewBox="0 0 34 34">
    <g fill="none" fill-rule="evenodd">
        <circle cx="17" cy="17" r="17" fill="#BF9622" fill-rule="nonzero"/>
        <g stroke="#FFF" stroke-linejoin="round" stroke-width=".98">
            <path d="M13.6 10.829V6.4L12.2 5M13.6 6.4L15 5"/>
            <path d="M13.6 7.571V12l-1.4 1.4M13.6 12l1.4 1.4"/>
            <path d="M12.19 8.385l3.835 2.215 1.912-.512M16.025 10.6l.512 1.912"/>
            <path d="M15.01 10.015L11.176 7.8l-.512-1.912M11.175 7.8l-1.912.512"/>
            <path d="M12.19 10.015L16.024 7.8l.512-1.912M16.025 7.8l1.912.512"/>
            <path d="M15.01 8.385L11.176 10.6l-1.912-.512M11.175 10.6l-.512 1.912"/>
        </g>
        <path fill="#FFF" fill-rule="nonzero" d="M27 23.889V13h-1.583c-.875 0-1.666.348-2.24.911l-3.685 3.622a3.182 3.182 0 0 1-2.24.911h-.94l-1.187-2.333h-3.167l1.584 7.778h1.583v1.555h-3.958c-.875 0-1.584-.696-1.584-1.555 0-.86.71-1.556 1.584-1.556v-1.555C9.417 20.778 8 22.17 8 23.889 8 25.607 9.418 27 11.167 27H27v-1.556h-3.167V23.89H27zm-4.75 1.555h-5.542V23.89h5.542v1.555z"/>
    </g>
</svg>
