<svg xmlns="http://www.w3.org/2000/svg" xmlns:xlink="http://www.w3.org/1999/xlink" width="34" height="34" viewBox="0 0 34 34">
    <defs>
        <circle id="a" cx="17" cy="17" r="17"/>
    </defs>
    <g fill="none" fill-rule="evenodd">
        <mask id="b" fill="#fff">
            <use xlink:href="#a"/>
        </mask>
        <use fill="#354E8C" fill-rule="nonzero" xlink:href="#a"/>
        <g fill="#FFF" fill-rule="nonzero" mask="url(#b)">
            <g transform="translate(9 6)">
                <path d="M2.687 10.752c-.758-.019-1.45-.643-1.432-1.402l-.053-2.91C1.24 4.921 2.58 4.93 4.074 4.891L4.09 9.32c.004.835-.568 1.428-1.403 1.432z"/>
                <ellipse cx="6.535" cy="1.768" rx="1.662" ry="1.679"/>
                <path d="M21.343 11.671l-.61.356a.873.873 0 0 1-.314 1.184l-6.365 3.712c.015-.035.03-.07.042-.109a.95.95 0 0 0-.348-1.031l3.116-1.816a1.589 1.589 0 0 0 .571-2.156l-.61.355a.873.873 0 0 1-.314 1.185l-3.623 2.113-.53-.159-.703-4.399a.941.941 0 0 0-.9-.796l-2.813-.08V6.788l1.58 1.595a.815.815 0 0 0 1.161 0l1.877-1.895a.835.835 0 0 0 0-1.173.815.815 0 0 0-1.161 0l-1.296 1.31-2.508-2.535a.813.813 0 0 0-.465-.231 1.39 1.39 0 0 0-.595-.135c-.777 0-1.408.637-1.408 1.422v8.738l-2.63 4.028a.956.956 0 0 0 .293 1.33l1.393.862c.153.094.322.14.489.14.006 0-1.518.892-4.572 2.679l.352.615 11.126-6.488 1.352.405a.917.917 0 0 0 .16.031l-6.203 3.618.352.616 13.532-7.892a1.588 1.588 0 0 0 .572-2.156zm-15.87 8.117a.953.953 0 0 0-.31-1.302l-.565-.35 2.251-3.446a.956.956 0 0 0 .155-.522v-2.267l2.922.082.674 4.213a.95.95 0 0 0 .22.474l-5.346 3.118z"/>
            </g>
        </g>
    </g>
</svg>
