<svg xmlns="http://www.w3.org/2000/svg" width="34" height="34" viewBox="0 0 34 34">
    <g fill="none" fill-rule="evenodd">
        <circle cx="17" cy="17" r="17" fill="#BF9622" fill-rule="nonzero"/>
        <g transform="translate(7 6)">
            <path stroke="#FFF" stroke-width="2" d="M0 10l1.4-2.1c.4-.6.9-1 1.6-1.2l2.1-.6c1.2-.3 2.4.3 2.8 1.4l.6 1.3c.3.8 1 1.7 2 2.2"/>
            <circle cx="7" cy="2" r="2" fill="#FFF" fill-rule="nonzero"/>
            <path fill="#FFF" fill-rule="nonzero" d="M4.6 6.1l-1 4.6c-.2.7.1 1.4.5 1.9l3.4 3.7-1-4.7.9-4.1-.7-1.4H4.6z"/>
            <g fill="#FFF" fill-rule="nonzero">
                <path d="M7.6 20h2.1l-.8-4.7L6 11.1l-1.6 1.2 2.7 3.6zM2.6 20l1.3-2.6.8-2.4-1.5-1.7-.9 2.9-2 3.8z"/>
            </g>
            <path stroke="#FFF" stroke-linecap="round" stroke-linejoin="round" stroke-width="1.5" d="M13 19v-7.5l3.25-5H23l-3.25 5V19"/>
            <path fill="#FFF" d="M16 9.5L17.143 8H20l-1.143 1.5z"/>
            <path stroke="#FFF" stroke-width="1.5" d="M20 11.5h-7"/>
        </g>
    </g>
</svg>
