<svg xmlns="http://www.w3.org/2000/svg" width="34" height="34" viewBox="0 0 34 34">
    <g fill="none" fill-rule="evenodd">
        <circle cx="17" cy="17" r="17" fill="#BF4976" fill-rule="nonzero"/>
        <g transform="translate(10 7)">
            <path stroke="#FFF" stroke-width="2" d="M1 10l1.4-2.1c.4-.6.9-1 1.6-1.2l2.1-.6c1.2-.3 2.4.3 2.8 1.4l.6 1.3c.3.8.9 1.3 1.7 1.6l1.8.6"/>
            <circle cx="8" cy="2" r="2" fill="#FFF" fill-rule="nonzero"/>
            <path fill="#FFF" fill-rule="nonzero" d="M5.6 6.1l-1 4.6c-.2.7.1 1.4.5 1.9l3.4 3.7-1-4.7.9-4.1-.7-1.4H5.6z"/>
            <g fill="#FFF" fill-rule="nonzero">
                <path d="M9.6 20h2.1c-.4-1-1.4-3.5-1.8-4.7L7 11.1l-1.6 1.2 2.7 3.6L9.6 20zM2.6 20l2.3-2.6.8-2.4-1.5-1.7-.9 2.9-3 3.8z"/>
            </g>
        </g>
    </g>
</svg>
