<svg xmlns="http://www.w3.org/2000/svg" width="34" height="34" viewBox="0 0 34 34">
    <g fill="none" fill-rule="evenodd">
        <circle cx="17" cy="17" r="17" fill="#496ABF" fill-rule="nonzero"/>
        <g transform="translate(7 8)">
            <path stroke="#FFF" stroke-width="2" d="M1 10l1.4-2.1c.4-.6.9-1 1.6-1.2l2.1-.6c1.2-.3 2.4.3 2.8 1.4l.6 1.3c.3.8.9 1.3 1.7 1.6l1.8.6"/>
            <circle cx="8" cy="2" r="2" fill="#FFF" fill-rule="nonzero"/>
            <path fill="#FFF" fill-rule="nonzero" d="M5.6 6.1l-1 4.6c-.2.7.1 1.4.5 1.9l3.4 3.7-1-4.7.9-4.1-.7-1.4H5.6z"/>
            <g fill="#FFF" fill-rule="nonzero">
                <path d="M9.6 20h2.1c-.4-1-1.4-3.5-1.8-4.7L7 11.1l-1.6 1.2 2.7 3.6L9.6 20zM2.6 20l2.3-2.6.8-2.4-1.5-1.7-.9 2.9-3 3.8z"/>
            </g>
        </g>
        <g stroke="#FFF" stroke-linejoin="round" stroke-width=".98">
            <path d="M23.6 10.829V6.4L22.2 5M23.6 6.4L25 5"/>
            <path d="M23.6 7.571V12l-1.4 1.4M23.6 12l1.4 1.4"/>
            <path d="M22.19 8.385l3.835 2.215 1.912-.512M26.025 10.6l.512 1.912"/>
            <path d="M25.01 10.015L21.176 7.8l-.512-1.912M21.175 7.8l-1.912.512"/>
            <path d="M22.19 10.015L26.024 7.8l.512-1.912M26.025 7.8l1.912.512"/>
            <path d="M25.01 8.385L21.176 10.6l-1.912-.512M21.175 10.6l-.512 1.912"/>
        </g>
    </g>
</svg>
