<svg xmlns="http://www.w3.org/2000/svg" width="26" height="31" viewBox="0 0 26 31">
    <g fill="none" fill-rule="evenodd">
        <path fill="#FFF" fill-rule="nonzero" d="M15.242 29.738c-.611.602-1.259.968-2.09.968-.842 0-1.548-.39-2.128-1.005-.202-.215-3.446-3.316-4.613-4.574C2.701 21.127.6 17.295.6 13.102.6 6.196 6.22.6 13.152.6c6.93 0 12.551 5.596 12.551 12.502 0 4.281-2.15 8.206-5.91 12.224-.78.833-1.578 1.619-2.573 2.553a155.788 155.788 0 0 1-1.1 1.025c-.395.368-.655.615-.878.834z"/>
        <path fill="#364E8D" fill-rule="nonzero" d="M14.26 28.74c2.74-2.698 10.043-8.436 10.043-15.638C24.303 6.971 19.31 2 13.152 2 6.992 2 2 6.97 2 13.102c0 7.202 7.5 12.94 10.043 15.639.293.31.67.565 1.109.565.439 0 .806-.268 1.108-.565z"/>
        <path stroke="#FFF" stroke-linecap="round" stroke-linejoin="round" d="M6 25l3.5-2.236 3.557.05 2.21-2.162H19l2.5-3.152H25"/>
        <g transform="rotate(-9 52.55 -40.611)">
            <ellipse cx="6.188" cy="1.4" fill="#FFF" fill-rule="nonzero" rx="1.375" ry="1.4"/>
            <path fill="#FFF" fill-rule="nonzero" d="M4.744 3.08l1.787 1.4-.893 3.22 1.168 1.61-.275.49-2.475-1.12a1.466 1.466 0 0 1-.481-1.47l1.169-4.13z"/>
            <path stroke="#FFF" stroke-linejoin="round" d="M10.586 3.478L9.36 14.421"/>
            <path fill="#FFF" fill-rule="nonzero" d="M4.42 8.28l.786-1.16 2.062 1.4.157.148c.368.467.562 1.037.562 1.622v2.31h-1.4v-2.31c0-.241-.07-.476-.205-.679L4.419 8.28zM4.328 4.378l.419-1.336.857.27c.675.172 1.27.517 1.77 1.028l.55.56c.088.088.18.113.324.084l1.719-.35.279 1.372-1.719.35c-.591.12-1.168-.034-1.601-.476l-.55-.56a2.392 2.392 0 0 0-1.154-.662l-.894-.28zM3.575 14l1.581-4.2-1.375-.35L2.131 14zM1.512 7.49C.894 7.28.482 6.58.688 5.95l.688-2.45c.413-1.26 1.513-.91 2.75-.56l-1.1 3.71c-.206.7-.825 1.05-1.512.84z"/>
        </g>
    </g>
</svg>
