<svg xmlns="http://www.w3.org/2000/svg" width="27" height="32" viewBox="0 0 27 32">
    <g fill="none" fill-rule="evenodd" transform="translate(2 2)">
        <path fill="#4A90E2" fill-rule="nonzero" stroke="#FFF" stroke-width="1.4" d="M13.133 27.92c-.505.494-1.014.78-1.633.78-.63 0-1.181-.303-1.65-.798-.228-.24-3.57-3.418-4.754-4.686C1.385 19.238-.7 15.456-.7 11.384-.7 4.709 4.764-.7 11.5-.7c6.736 0 12.2 5.409 12.2 12.084 0 4.163-2.135 8.036-5.896 12.033a55.587 55.587 0 0 1-2.619 2.584 159.588 159.588 0 0 1-1.132 1.05c-.412.381-.684.638-.92.87z"/>
        <circle cx="11.5" cy="11.5" r="7.75" stroke="#FFF" stroke-width="1.5"/>
        <path fill="#FFF" d="M8 7h1.778v3.553h3.426V7H15v9h-1.796v-3.894H9.778V16H8z"/>
    </g>
</svg>
