<svg xmlns="http://www.w3.org/2000/svg" width="27" height="32" viewBox="0 0 27 32">
    <g fill="none" fill-rule="evenodd">
        <path fill="#3FA63F" fill-rule="nonzero" stroke="#FFF" stroke-width="1.4" d="M15.133 29.92c-.505.494-1.014.78-1.633.78-.63 0-1.181-.303-1.65-.798-.228-.24-3.57-3.418-4.754-4.686C3.385 21.238 1.3 17.456 1.3 13.384 1.3 6.709 6.764 1.3 13.5 1.3c6.736 0 12.2 5.409 12.2 12.084 0 4.163-2.135 8.036-5.896 12.033a55.587 55.587 0 0 1-2.619 2.584 159.588 159.588 0 0 1-1.132 1.05c-.412.381-.684.638-.92.87z"/>
        <g fill="#FFF" fill-rule="nonzero" transform="translate(8 6)">
            <rect width="9" height="2" y="12" rx="1"/>
            <rect width="9" height="2" y="9" rx="1"/>
            <rect width="11" height="2" y="6" rx="1"/>
            <rect width="5" height="2" x="6" y="12" rx="1"/>
            <rect width="5" height="2" x="6" y="9" rx="1"/>
        </g>
        <path fill="#FFF" d="M13.325 9.003l-5.943 2.85a.915.915 0 0 1-1.227-.215.804.804 0 0 1 .228-1.158L13.297 7l7.3 3.468c.41.25.526.766.261 1.152a.914.914 0 0 1-1.22.246l-6.313-2.863z"/>
    </g>
</svg>
