<svg xmlns="http://www.w3.org/2000/svg" width="26" height="31" viewBox="0 0 26 31">
    <g fill="none" fill-rule="evenodd">
        <g fill-rule="nonzero">
            <path fill="#FFF" d="M15.242 29.738c-.611.602-1.259.968-2.09.968-.842 0-1.548-.39-2.128-1.005-.202-.215-3.446-3.316-4.613-4.574C2.701 21.127.6 17.295.6 13.102.6 6.196 6.22.6 13.152.6c6.93 0 12.551 5.596 12.551 12.502 0 4.281-2.15 8.206-5.91 12.224-.78.833-1.578 1.619-2.573 2.553a155.788 155.788 0 0 1-1.1 1.025c-.395.368-.655.615-.878.834z"/>
            <path fill="#A63F3F" d="M14.26 28.74c2.74-2.698 10.043-8.436 10.043-15.638C24.303 6.971 19.31 2 13.152 2 6.992 2 2 6.97 2 13.102c0 7.202 7.5 12.94 10.043 15.639.293.31.67.565 1.109.565.439 0 .806-.268 1.108-.565z"/>
        </g>
        <g transform="translate(7 7)">
            <ellipse cx="6.188" cy="1.4" fill="#FFF" fill-rule="nonzero" rx="1.375" ry="1.4"/>
            <path fill="#FFF" fill-rule="nonzero" d="M4.744 3.08l1.787 1.4-.893 3.22 1.168 1.61-.55 1.19-2.2-1.82a1.466 1.466 0 0 1-.481-1.47l1.169-4.13z"/>
            <path stroke="#FFF" stroke-linejoin="round" stroke-width=".7" d="M9.969 3.5V14"/>
            <path stroke="#FFF" stroke-width="1.4" d="M4.813 7.7l1.65 1.96c.274.35.412.77.412 1.19V14M4.537 3.71l.894.28c.55.14 1.032.42 1.444.84l.55.56c.275.28.619.35.962.28l1.72-.35"/>
            <path fill="#FFF" fill-rule="nonzero" d="M3.575 14l1.237-3.5-1.1-.98L2.132 14zM1.512 7.49C.894 7.28.482 6.58.688 5.95l.688-2.45c.413-1.26 1.513-.91 2.75-.56l-1.1 3.71c-.206.7-.825 1.05-1.512.84z"/>
        </g>
    </g>
</svg>
