<svg xmlns="http://www.w3.org/2000/svg" xmlns:xlink="http://www.w3.org/1999/xlink" width="26" height="31" viewBox="0 0 26 31">
    <defs>
        <path id="a" d="M12.26 26.74c2.74-2.698 10.043-8.436 10.043-15.638C22.303 4.971 17.31 0 11.152 0 4.992 0 0 4.97 0 11.102c0 7.202 7.5 12.94 10.043 15.639.293.31.67.565 1.109.565.439 0 .806-.268 1.108-.565z"/>
    </defs>
    <g fill="none" fill-rule="evenodd">
        <path fill="#FFF" fill-rule="nonzero" d="M15.242 29.738c-.611.602-1.259.968-2.09.968-.842 0-1.548-.39-2.128-1.005-.202-.215-3.446-3.316-4.613-4.574C2.701 21.127.6 17.295.6 13.102.6 6.196 6.22.6 13.152.6c6.93 0 12.551 5.596 12.551 12.502 0 4.281-2.15 8.206-5.91 12.224-.78.833-1.578 1.619-2.573 2.553a155.788 155.788 0 0 1-1.1 1.025c-.395.368-.655.615-.878.834z"/>
        <use fill="#3F8FA6" fill-rule="nonzero" transform="translate(2 2)" xlink:href="#a"/>
        <g fill="#FFF" fill-rule="nonzero">
            <path d="M14.964 8.534c-.021.78-.68 1.4-1.441 1.357a1.41 1.41 0 0 1-1.32-1.392c-.004-.768.643-1.418 1.402-1.41.765.009 1.38.663 1.359 1.445zM9.77 8.958a.449.449 0 0 0-.647.114l-.506.766c-.144.22-.289.612-.32.873l-.294 2.401a.492.492 0 0 0 .415.542l1.097.158a.564.564 0 0 0 .604-.392l.86-3.01a.744.744 0 0 0-.253-.744l-.956-.708zM20.856 15.315a6.432 6.432 0 0 0-1.295-.558 6.373 6.373 0 0 0-1.395-.272c-.053-.004-.108-.005-.162-.008a.394.394 0 0 0-.132-.024.393.393 0 0 0-.105.016 5.014 5.014 0 0 0-2.459.603l-.012.006a.584.584 0 0 0-.054.034c-.258.18.397 1.114.655.933a3.998 3.998 0 0 1 1.579-.648v7.207a.396.396 0 1 0 .792 0v-7.279a5.878 5.878 0 0 1 2.328.47l.015.006a.272.272 0 0 0 .245-.486zM17.543 13.17l-4.431-2.755a.876.876 0 0 0-1.25.36 1.086 1.086 0 0 0-.226.435l-.754 2.907h2.26l.406-1.567L17 14.17a.57.57 0 0 0 .543-1zM14.81 17.02l-1.593-1.59h-2.352c-.029.046-.023.112-.023.209 0 .13.04.208.225.352l2.467 1.966v2.72a.766.766 0 0 0 1.532 0V17.59a.765.765 0 0 0-.224-.54l-.032-.03z"/>
            <path d="M5.771 18.613a.328.328 0 0 1-.038-.654c2.881-.344 4.448-3.307 4.464-3.337a.328.328 0 0 1 .291-.177h2.586l-.111.656H10.68c-.408.696-2.045 3.172-4.87 3.51a.376.376 0 0 1-.04.002zM11.496 17.666L9.97 20.922a.707.707 0 0 1-1.29-.578l1.418-3.305a.766.766 0 1 1 1.398.627z"/>
        </g>
    </g>
</svg>
