<svg xmlns="http://www.w3.org/2000/svg" width="26" height="31" viewBox="0 0 26 31">
    <g fill="none" fill-rule="evenodd">
        <path fill="#364E8D" fill-rule="nonzero" stroke="#FFF" stroke-width="1.4" d="M14.75 29.24c-.492.485-.99.766-1.598.766-.62 0-1.159-.298-1.618-.785-.22-.234-3.461-3.332-4.61-4.57-3.6-3.882-5.624-7.573-5.624-11.549C1.3 6.583 6.607 1.3 13.152 1.3c6.544 0 11.851 5.283 11.851 11.802 0 4.064-2.072 7.845-5.722 11.745a54.07 54.07 0 0 1-2.54 2.522 155.127 155.127 0 0 1-1.098 1.023c-.4.372-.663.622-.892.848z"/>
        <g fill="#FFF" fill-rule="nonzero">
            <path d="M7.433 13c-.26 0-.433.171-.433.429V20.57c0 .258.173.429.433.429s.434-.171.434-.429v-.843h11.266v.843c0 .258.174.429.434.429s.433-.171.433-.429v-1.714c0-.257-.173-.428-.433-.428h-11.7v-5c0-.258-.174-.429-.434-.429zm2 .714c0 .686.607 1.286 1.3 1.286.694 0 1.3-.6 1.3-1.286 0-.685-.606-1.285-1.3-1.285-.693 0-1.3.6-1.3 1.285zm4.634-.328c-1.3 0-1.3 1.285-1.3 1.285v1.186h-3.6c-.26 0-.434.172-.434.429v.857c0 .257.174.428.434.428H20V15.43c0-2.143-2.167-2.043-2.167-2.043h-3.766zM13.325 9.003l-5.943 2.85a.915.915 0 0 1-1.227-.215.804.804 0 0 1 .228-1.158L13.297 7l7.3 3.468c.41.25.526.766.261 1.152a.914.914 0 0 1-1.22.246l-6.313-2.863z"/>
        </g>
    </g>
</svg>
