<svg xmlns="http://www.w3.org/2000/svg" xmlns:xlink="http://www.w3.org/1999/xlink" width="26" height="31" viewBox="0 0 26 31">
    <defs>
        <path id="a" d="M12.26 26.74c2.74-2.698 10.043-8.436 10.043-15.638C22.303 4.971 17.31 0 11.152 0 4.992 0 0 4.97 0 11.102c0 7.202 7.5 12.94 10.043 15.639.293.31.67.565 1.109.565.439 0 .806-.268 1.108-.565z"/>
    </defs>
    <g fill="none" fill-rule="evenodd">
        <path fill="#FFF" fill-rule="nonzero" d="M15.242 29.738c-.611.602-1.259.968-2.09.968-.842 0-1.548-.39-2.128-1.005-.202-.215-3.446-3.316-4.613-4.574C2.701 21.127.6 17.295.6 13.102.6 6.196 6.22.6 13.152.6c6.93 0 12.551 5.596 12.551 12.502 0 4.281-2.15 8.206-5.91 12.224-.78.833-1.578 1.619-2.573 2.553a155.788 155.788 0 0 1-1.1 1.025c-.395.368-.655.615-.878.834z"/>
        <g transform="translate(2 2)">
            <mask id="b" fill="#fff">
                <use xlink:href="#a"/>
            </mask>
            <use fill="#3FA689" fill-rule="nonzero" xlink:href="#a"/>
            <g stroke="#FFF" mask="url(#b)">
                <path stroke-width="1.4" d="M14.5 26l.969-4.8 2.406-5.143L18.078 8l3.578-4.629"/>
                <path stroke-width=".7" d="M7.5 26l4.188-5.829 2.062-5.485 2.063-8.229 2.406-4.114M15.125 21.2l-3.438-1.029M17.875 16.057l-4.125-1.371M17.875 8.171l-2.063-1.714"/>
            </g>
            <g mask="url(#b)">
                <g transform="translate(4 4)">
                    <path stroke="#FFF" stroke-width="1.4" d="M2.143 4.25c1.071 0 1.071-.708 1.786.354h3.214L10 2.48"/>
                    <ellipse cx="3.571" cy="1.417" fill="#FFF" fill-rule="nonzero" rx="1.429" ry="1.417"/>
                    <path fill="#FFF" fill-rule="nonzero" d="M2.143 3.542l-.55 4.675c-.142.495-.285.991 0 1.345l1.621-.354 1.094-4.25-1.094-.708-1.071-.708z"/>
                    <g fill="#FFF" fill-rule="nonzero">
                        <path d="M6.5 12.75l1.357-.354L7.5 6.729l-3.929.708-.357 1.771L6.43 8.5z"/>
                        <path d="M6.405 15.597l-.834-3.12L3.586 9.54l-1.564.839 2.333 2.84.637 3.04z"/>
                    </g>
                </g>
            </g>
        </g>
    </g>
</svg>
