<svg xmlns="http://www.w3.org/2000/svg" xmlns:xlink="http://www.w3.org/1999/xlink" width="26" height="31" viewBox="0 0 26 31">
    <defs>
        <path id="a" d="M12.26 26.74c2.74-2.698 10.043-8.436 10.043-15.638C22.303 4.971 17.31 0 11.152 0 4.992 0 0 4.97 0 11.102c0 7.202 7.5 12.94 10.043 15.639.293.31.67.565 1.109.565.439 0 .806-.268 1.108-.565z"/>
    </defs>
    <g fill="none" fill-rule="evenodd">
        <path fill="#FFF" fill-rule="nonzero" d="M15.242 29.738c-.611.602-1.259.968-2.09.968-.842 0-1.548-.39-2.128-1.005-.202-.215-3.446-3.316-4.613-4.574C2.701 21.127.6 17.295.6 13.102.6 6.196 6.22.6 13.152.6c6.93 0 12.551 5.596 12.551 12.502 0 4.281-2.15 8.206-5.91 12.224-.78.833-1.578 1.619-2.573 2.553a155.788 155.788 0 0 1-1.1 1.025c-.395.368-.655.615-.878.834z"/>
        <use fill="#496ABF" fill-rule="nonzero" transform="translate(2 2)" xlink:href="#a"/>
        <g fill="#FFF" fill-rule="nonzero" transform="translate(4 7)">
            <path d="M8.27 3.5L6.687 5.41a.537.537 0 0 1-.426.19.473.473 0 0 1-.385-.125.52.52 0 0 1-.163-.384.387.387 0 0 1 .183-.382L7.6 2.673a.537.537 0 0 1 .426-.191h2.496a.653.653 0 0 1 .487.19l1.582 1.655 1.34-1.4a.65.65 0 0 1 .365-.127.56.56 0 0 1 .547.573.919.919 0 0 1-.121.382l-1.583 1.654c-.487.51-.852.064-.852.064l-.974-1.018L9.791 6.3l1.4 1.464c.211.217.261.553.122.827l-.791 3.627a.678.678 0 0 1-.67.573c-.37 0-.67-.313-.67-.7V11.9l.67-2.99L8.27 7.317 6.93 8.91a1.122 1.122 0 0 1-.79.255H3.4a.673.673 0 0 1-.67-.51.702.702 0 0 1 .487-.827h2.557l3.53-4.263L8.27 3.5z"/>
            <ellipse cx="11.739" cy="1.273" rx="1.217" ry="1.273"/>
            <path d="M15.36 14.428H3.825v-1.03H15.36v-.67H16.5L16 14zM1.5 5h4.043v1H1.5z"/>
            <path d="M11.706 12.556l3.123-8.579.94.342-3.123 8.58zM6.26 11.02l-1.693.822L1.01 7.415 0 7.946l3.811 4.781h2.45v-.885z"/>
        </g>
    </g>
</svg>
