<svg xmlns="http://www.w3.org/2000/svg" xmlns:xlink="http://www.w3.org/1999/xlink" width="26" height="31" viewBox="0 0 26 31">
    <defs>
        <path id="a" d="M14.26 28.74c2.74-2.698 10.043-8.436 10.043-15.638C24.303 6.971 19.31 2 13.152 2 6.992 2 2 6.97 2 13.102c0 7.202 7.5 12.94 10.043 15.639.293.31.67.565 1.109.565.439 0 .806-.268 1.108-.565z"/>
    </defs>
    <g fill="none" fill-rule="evenodd">
        <path fill="#FFF" fill-rule="nonzero" d="M15.242 29.738c-.611.602-1.259.968-2.09.968-.842 0-1.548-.39-2.128-1.005-.202-.215-3.446-3.316-4.613-4.574C2.701 21.127.6 17.295.6 13.102.6 6.196 6.22.6 13.152.6c6.93 0 12.551 5.596 12.551 12.502 0 4.281-2.15 8.206-5.91 12.224-.78.833-1.578 1.619-2.573 2.553a155.788 155.788 0 0 1-1.1 1.025c-.395.368-.655.615-.878.834z"/>
        <mask id="b" fill="#fff">
            <use xlink:href="#a"/>
        </mask>
        <use fill="#734815" fill-rule="nonzero" xlink:href="#a"/>
        <path stroke="#FFF" d="M0 27l6.2-3 7.233-1 3.1-2.5 6.717-.5 3.447-2.224L31 17" mask="url(#b)"/>
        <g mask="url(#b)">
            <g transform="translate(7 7)">
                <circle cx="7.7" cy="1.4" r="1.4" fill="#FFF" fill-rule="nonzero"/>
                <path fill="#FFF" fill-rule="nonzero" d="M11.2 7c1.138 0 2.1.963 2.1 2.1 0 1.138-.963 2.1-2.1 2.1s-2.1-.962-2.1-2.1c0-1.137.963-2.1 2.1-2.1zm0-.7c-1.54 0-2.8 1.26-2.8 2.8 0 1.54 1.26 2.8 2.8 2.8 1.54 0 2.8-1.26 2.8-2.8 0-1.54-1.26-2.8-2.8-2.8zM2.8 9.1c1.138 0 2.1.963 2.1 2.1 0 1.138-.963 2.1-2.1 2.1S.7 12.337.7 11.2s.963-2.1 2.1-2.1zm0-.7C1.26 8.4 0 9.66 0 11.2 0 12.74 1.26 14 2.8 14c1.54 0 2.8-1.26 2.8-2.8 0-1.54-1.26-2.8-2.8-2.8zM6.72 8.47l-.07-1.26-2.1-.91 1.89-2.31 2.1.21-2.52-1.89c-.42-.35-.98-.28-1.26.14-.7.77-1.75 2.03-2.31 2.73-.63.77-.35 1.96.63 2.24l3.64 1.05z"/>
                <path stroke="#FFF" stroke-width="1.44" d="M10.5 4.9l-2.66-.28-2.31-1.75M7.7 11.2L6.51 7.7 3.85 6.37"/>
                <path fill="#FFF" fill-rule="nonzero" d="M.56 4.76C.07 4.41.07 3.71.42 3.22l.91-1.12c.7-.84 1.89-.98 2.73-.28l.14.14-2.1 2.66c-.42.49-1.05.56-1.54.14z"/>
            </g>
        </g>
    </g>
</svg>
