<svg xmlns="http://www.w3.org/2000/svg" xmlns:xlink="http://www.w3.org/1999/xlink" width="26" height="31" viewBox="0 0 26 31">
    <defs>
        <path id="a" d="M14.26 28.74c2.74-2.698 10.043-8.436 10.043-15.638C24.303 6.971 19.31 2 13.152 2 6.992 2 2 6.97 2 13.102c0 7.202 7.5 12.94 10.043 15.639.293.31.67.565 1.109.565.439 0 .806-.268 1.108-.565z"/>
    </defs>
    <g fill="none" fill-rule="evenodd">
        <g>
            <path fill="#FFF" fill-rule="nonzero" d="M15.242 29.738c-.611.602-1.259.968-2.09.968-.842 0-1.548-.39-2.128-1.005-.202-.215-3.446-3.316-4.613-4.574C2.701 21.127.6 17.295.6 13.102.6 6.196 6.22.6 13.152.6c6.93 0 12.551 5.596 12.551 12.502 0 4.281-2.15 8.206-5.91 12.224-.78.833-1.578 1.619-2.573 2.553a155.788 155.788 0 0 1-1.1 1.025c-.395.368-.655.615-.878.834z"/>
            <mask id="b" fill="#fff">
                <use xlink:href="#a"/>
            </mask>
            <use fill="#A67B3F" fill-rule="nonzero" xlink:href="#a"/>
            <g mask="url(#b)">
                <g transform="translate(5 7)">
                    <path stroke="#FFF" stroke-width="1.4" d="M4.09 7.09s1.024-1.287 1.705-1.976c.39-.395.546-.41 1.023-.546L8.25 4.16c.818-.204 1.636.205 1.91.955.59.772 1.067 1.227 1.43 1.363l2.387.614"/>
                    <circle cx="9.545" cy="1.364" r="1.364" fill="#FFF" fill-rule="nonzero"/>
                    <path fill="#FFF" fill-rule="nonzero" d="M7.91 4.16l-.683 3.135c-.136.478-.272.887 0 1.228l3.682 1.363L9.205 7.91l.613-2.795-.477-.955H7.909z"/>
                    <g fill="#FFF" fill-rule="nonzero">
                        <path d="M12 14.66l1.295-.342c-.272-.682-1.022-3.954-1.295-4.773L8.864 7.568l-1.091.818 3.272 1.978.955 4.295zM5.455 14.318l1.977-2.454.75-2.319-1.227-.477-.614 1.977-1.977 2.25z"/>
                    </g>
                    <path stroke="#FFF" stroke-width=".7" d="M5.114 7.84L.34 13.296M15 7.5l-6.818 7.16"/>
                </g>
            </g>
        </g>
    </g>
</svg>
