<svg xmlns="http://www.w3.org/2000/svg" width="27" height="32" viewBox="0 0 27 32">
    <g fill="none" fill-rule="evenodd">
        <path fill="#D0021B" fill-rule="nonzero" stroke="#FFF" stroke-width="1.4" d="M15.133 29.92c-.505.494-1.014.78-1.633.78-.63 0-1.181-.303-1.65-.798-.228-.24-3.57-3.418-4.754-4.686C3.385 21.238 1.3 17.456 1.3 13.384 1.3 6.709 6.764 1.3 13.5 1.3c6.736 0 12.2 5.409 12.2 12.084 0 4.163-2.135 8.036-5.896 12.033a55.587 55.587 0 0 1-2.619 2.584 159.588 159.588 0 0 1-1.132 1.05c-.412.381-.684.638-.92.87z"/>
        <path fill="#FFF" fill-rule="nonzero" d="M11.77 8c-.64 0-.869.605-1.155 1.2l-.577 1.2H7.731C6.77 10.4 6 11.203 6 12.2v6c0 .997.772 1.8 1.73 1.8h11.54c.958 0 1.73-.803 1.73-1.8v-6c0-.997-.772-1.8-1.73-1.8h-2.308l-.577-1.2C16.096 8.6 15.87 8 15.23 8h-3.462zm-4.04 3.6c.32 0 .578.269.578.6 0 .331-.259.6-.577.6a.589.589 0 0 1-.577-.6c0-.331.258-.6.577-.6zm5.77 0c1.912 0 3.462 1.612 3.462 3.6s-1.55 3.6-3.462 3.6c-1.912 0-3.462-1.612-3.462-3.6s1.55-3.6 3.462-3.6zm0 1.8c-.956 0-1.73.806-1.73 1.8s.774 1.8 1.73 1.8 1.73-.806 1.73-1.8-.774-1.8-1.73-1.8z"/>
    </g>
</svg>
