<svg xmlns="http://www.w3.org/2000/svg" xmlns:xlink="http://www.w3.org/1999/xlink" width="26" height="31" viewBox="0 0 26 31">
    <defs>
        <path id="a" d="M12.26 26.74c2.74-2.698 10.043-8.436 10.043-15.638C22.303 4.971 17.31 0 11.152 0 4.992 0 0 4.97 0 11.102c0 7.202 7.5 12.94 10.043 15.639.293.31.67.565 1.109.565.439 0 .806-.268 1.108-.565z"/>
    </defs>
    <g fill="none" fill-rule="evenodd">
        <path fill="#FFF" fill-rule="nonzero" d="M15.242 29.738c-.611.602-1.259.968-2.09.968-.842 0-1.548-.39-2.128-1.005-.202-.215-3.446-3.316-4.613-4.574C2.701 21.127.6 17.295.6 13.102.6 6.196 6.22.6 13.152.6c6.93 0 12.551 5.596 12.551 12.502 0 4.281-2.15 8.206-5.91 12.224-.78.833-1.578 1.619-2.573 2.553a155.788 155.788 0 0 1-1.1 1.025c-.395.368-.655.615-.878.834z"/>
        <g transform="translate(2 2)">
            <mask id="b" fill="#fff">
                <use xlink:href="#a"/>
            </mask>
            <use fill="#BF9622" fill-rule="nonzero" xlink:href="#a"/>
            <g stroke="#FFF" stroke-linejoin="round" stroke-width=".686" mask="url(#b)">
                <path d="M8.92 7.08v-3.1L7.94 3M8.92 3.98L9.9 3"/>
                <path d="M8.92 4.8v3.1l-.98.98M8.92 7.9l.98.98"/>
                <path d="M7.932 5.37l2.685 1.55 1.34-.359M10.617 6.92l.36 1.339"/>
                <path d="M9.908 6.51L7.223 4.96l-.36-1.339M7.223 4.96l-1.34.359"/>
                <path d="M7.932 6.51l2.685-1.55.36-1.339M10.617 4.96l1.34.359"/>
                <path d="M9.908 5.37L7.223 6.92l-1.34-.359M7.223 6.92l-.36 1.339"/>
            </g>
            <g fill="#FFF" fill-rule="nonzero" mask="url(#b)">
                <path d="M18 15.778V8h-1.083c-.599 0-1.14.248-1.532.651l-2.522 2.587a2.13 2.13 0 0 1-1.532.65h-.644l-.812-1.666H7.708l1.084 5.556h1.083v2.11H6.167c-.599 0-1.084-.497-1.084-1.11 0-.614.485-1.111 1.084-1.111v-1.111C4.97 14.556 4 15.55 4 16.777 4 18.005 4.97 19 6.167 19H18v-1.111h-2.167v-2.111H18zm-3.25 2.11h-3.792V16h3.792v1.889z"/>
            </g>
        </g>
    </g>
</svg>
