<svg xmlns="http://www.w3.org/2000/svg" width="27" height="32" viewBox="0 0 27 32">
    <g fill="none" fill-rule="evenodd">
        <path fill="#B80217" fill-rule="nonzero" stroke="#FFF" stroke-width="1.4" d="M15.133 29.92c-.505.494-1.014.78-1.633.78-.63 0-1.181-.303-1.65-.798-.228-.24-3.57-3.418-4.754-4.686C3.385 21.238 1.3 17.456 1.3 13.384 1.3 6.709 6.764 1.3 13.5 1.3c6.736 0 12.2 5.409 12.2 12.084 0 4.163-2.135 8.036-5.896 12.033a55.587 55.587 0 0 1-2.619 2.584 159.588 159.588 0 0 1-1.132 1.05c-.412.381-.684.638-.92.87z"/>
        <path fill="#FFF" fill-rule="nonzero" d="M9.06 7l-1.052 5.667c-.154.83 1.874 1.216 1.84 2.06l-.262 6.697c-.04 1.03 1.052 1.03 1.052 1.03s1.092 0 1.051-1.03l-.262-6.697c-.033-.842 1.823-1.216 1.84-2.06L12.215 7h-.526l.263 4.121-.788.515L10.9 7h-.526l-.263 4.636-.789-.515L9.586 7H9.06zM18 7c-.775 0-2.066.675-2.582 1.686-.43.759-.573 2.454-.573 3.466v2.575c0 .843 1.147 1.03 1.577 1.03l-.526 5.667c-.095 1.026 1.052 1.03 1.052 1.03s1.052 0 1.052-1.03V7z"/>
    </g>
</svg>
