<svg xmlns="http://www.w3.org/2000/svg" xmlns:xlink="http://www.w3.org/1999/xlink" width="26" height="31" viewBox="0 0 26 31">
    <defs>
        <path id="a" d="M14.26 28.74c2.74-2.698 10.043-8.436 10.043-15.638C24.303 6.971 19.31 2 13.152 2 6.992 2 2 6.97 2 13.102c0 7.202 7.5 12.94 10.043 15.639.293.31.67.565 1.109.565.439 0 .806-.268 1.108-.565z"/>
    </defs>
    <g fill="none" fill-rule="evenodd">
        <path fill="#FFF" fill-rule="nonzero" d="M15.242 29.738c-.611.602-1.259.968-2.09.968-.842 0-1.548-.39-2.128-1.005-.202-.215-3.446-3.316-4.613-4.574C2.701 21.127.6 17.295.6 13.102.6 6.196 6.22.6 13.152.6c6.93 0 12.551 5.596 12.551 12.502 0 4.281-2.15 8.206-5.91 12.224-.78.833-1.578 1.619-2.573 2.553a155.788 155.788 0 0 1-1.1 1.025c-.395.368-.655.615-.878.834z"/>
        <mask id="b" fill="#fff">
            <use xlink:href="#a"/>
        </mask>
        <use fill="#496ABF" fill-rule="nonzero" xlink:href="#a"/>
        <g mask="url(#b)">
            <g transform="translate(6 6)">
                <path stroke="#FFF" stroke-width="1.232" d="M3.175 6.122V3.938l2.143-.303c.884 0 .884-.606 1.473.303.554.946 1.08 1.546 1.58 1.801l3.054.383"/>
                <ellipse cx="6.496" cy="1.212" fill="#FFF" fill-rule="nonzero" rx="1.179" ry="1.212"/>
                <path fill="#FFF" fill-rule="nonzero" d="M5.318 3.029l-.453 3.998c-.118.424-.236.848 0 1.151l1.337-.303.902-3.634-.902-.606-.884-.606z"/>
                <g fill="#FFF" fill-rule="nonzero">
                    <path d="M9.55 11.86l1.12-.302-1.361-4.655-2.813-.542-.294 1.514 2.223.542z"/>
                    <path d="M8.535 14.091l-.488-4.363L6.735 8.5l-1.54.448L7.02 10.33l.32 4.296z"/>
                </g>
                <path stroke="#FFF" d="M13.65 12.87l-2.8-5.566"/>
                <path stroke="#FFF" stroke-linecap="round" stroke-width=".77" d="M0 11.13c4.793 3.68 8.072 5.274 9.838 4.783 1.766-.49 3.153-1.273 4.162-2.348M2.1 8.348l10.15 6.609"/>
                <path stroke="#FFF" stroke-width=".77" d="M1.4 11.826l2.1-2.783M3.85 13.565l2.1-2.782"/>
            </g>
        </g>
    </g>
</svg>
