<svg xmlns="http://www.w3.org/2000/svg" xmlns:xlink="http://www.w3.org/1999/xlink" width="26" height="31" viewBox="0 0 26 31">
    <defs>
        <path id="a" d="M12.26 26.74c2.74-2.698 10.043-8.436 10.043-15.638C22.303 4.971 17.31 0 11.152 0 4.992 0 0 4.97 0 11.102c0 7.202 7.5 12.94 10.043 15.639.293.31.67.565 1.109.565.439 0 .806-.268 1.108-.565z"/>
    </defs>
    <g fill="none" fill-rule="evenodd">
        <path fill="#FFF" fill-rule="nonzero" d="M15.242 29.738c-.611.602-1.259.968-2.09.968-.842 0-1.548-.39-2.128-1.005-.202-.215-3.446-3.316-4.613-4.574C2.701 21.127.6 17.295.6 13.102.6 6.196 6.22.6 13.152.6c6.93 0 12.551 5.596 12.551 12.502 0 4.281-2.15 8.206-5.91 12.224-.78.833-1.578 1.619-2.573 2.553a155.788 155.788 0 0 1-1.1 1.025c-.395.368-.655.615-.878.834z"/>
        <g transform="translate(2 2)">
            <mask id="b" fill="#fff">
                <use xlink:href="#a"/>
            </mask>
            <use fill="#354E8C" fill-rule="nonzero" xlink:href="#a"/>
            <g fill="#FFF" fill-rule="nonzero" mask="url(#b)">
                <g transform="translate(4 3)">
                    <ellipse cx="6.032" cy="1.566" rx="1.534" ry="1.487"/>
                    <path d="M19.701 10.338l-.562.315a.756.756 0 0 1-.29 1.049l-5.876 3.288c.014-.032.028-.063.039-.097a.823.823 0 0 0-.32-.913l2.875-1.61a1.376 1.376 0 0 0 .528-1.909l-.563.315a.757.757 0 0 1-.29 1.05l-3.345 1.871-.489-.14-.65-3.897a.857.857 0 0 0-.83-.705l-2.596-.07V6.01L8.79 7.425a.769.769 0 0 0 .536.215.768.768 0 0 0 .536-.215l1.732-1.68a.718.718 0 0 0 0-1.038.775.775 0 0 0-1.072 0l-1.196 1.16L7.01 3.621a.763.763 0 0 0-.428-.205 1.328 1.328 0 0 0-.55-.12c-.717 0-1.299.565-1.299 1.26v7.74l-2.428 3.568a.818.818 0 0 0-.123.645.84.84 0 0 0 .394.533l1.285.763a.884.884 0 0 0 .452.124l.023-.002-4.244 2.375.325.545 10.27-5.747 1.248.358c.05.015.099.023.149.028l-5.727 3.205.325.545 12.492-6.99a1.376 1.376 0 0 0 .527-1.91zM5.053 17.527a.825.825 0 0 0-.288-1.153l-.52-.31 2.077-3.052a.822.822 0 0 0 .143-.463v-2.008l2.698.073.622 3.732a.827.827 0 0 0 .204.42l-4.936 2.76z"/>
                </g>
            </g>
        </g>
        <path fill="#FFF" fill-rule="nonzero" d="M8.687 14.752c-.758-.019-1.45-.643-1.432-1.402l-.053-2.91c.038-1.518 1.378-1.51 2.872-1.548l.016 4.428c.004.835-.568 1.428-1.403 1.432z"/>
    </g>
</svg>
