<svg xmlns="http://www.w3.org/2000/svg" width="26" height="31" viewBox="0 0 26 31">
    <g fill="none" fill-rule="evenodd">
        <path fill="#FFF" fill-rule="nonzero" d="M15.242 29.738c-.611.602-1.259.968-2.09.968-.842 0-1.548-.39-2.128-1.005-.202-.215-3.446-3.316-4.613-4.574C2.701 21.127.6 17.295.6 13.102.6 6.196 6.22.6 13.152.6c6.93 0 12.551 5.596 12.551 12.502 0 4.281-2.15 8.206-5.91 12.224-.78.833-1.578 1.619-2.573 2.553a155.788 155.788 0 0 1-1.1 1.025c-.395.368-.655.615-.878.834z"/>
        <path fill="#BF9622" fill-rule="nonzero" d="M14.26 28.74c2.74-2.698 10.043-8.436 10.043-15.638C24.303 6.971 19.31 2 13.152 2 6.992 2 2 6.97 2 13.102c0 7.202 7.5 12.94 10.043 15.639.293.31.67.565 1.109.565.439 0 .806-.268 1.108-.565z"/>
        <g transform="translate(6 7)">
            <path stroke="#FFF" stroke-width="1.4" d="M0 7l.974-1.47c.278-.42.626-.7 1.113-.84l1.46-.42c.836-.21 1.67.21 1.949.98l.417.91c.209.56.696 1.19 1.391 1.54"/>
            <ellipse cx="4.87" cy="1.4" fill="#FFF" fill-rule="nonzero" rx="1.391" ry="1.4"/>
            <path fill="#FFF" fill-rule="nonzero" d="M3.2 4.27l-.696 3.22c-.139.49.07.98.348 1.33l2.365 2.59-.695-3.29.626-2.87-.487-.98H3.2z"/>
            <g fill="#FFF" fill-rule="nonzero">
                <path d="M5.287 14h1.46l-.556-3.29-2.017-2.94-1.113.84 1.878 2.52zM1.809 14l.904-1.82.557-1.68-1.044-1.19-.626 2.03L.209 14z"/>
            </g>
            <path stroke="#FFF" stroke-linecap="round" stroke-linejoin="round" stroke-width="1.05" d="M9.043 13.3V8.05l2.261-3.5H16l-2.26 3.5v5.25"/>
            <path fill="#FFF" d="M11.13 6.65l.795-1.05h1.988l-.795 1.05z"/>
            <path stroke="#FFF" stroke-width="1.05" d="M13.913 8.05h-4.87"/>
        </g>
    </g>
</svg>
