<svg xmlns="http://www.w3.org/2000/svg" xmlns:xlink="http://www.w3.org/1999/xlink" width="26" height="31" viewBox="0 0 26 31">
    <defs>
        <path id="a" d="M14.26 28.74c2.74-2.698 10.043-8.436 10.043-15.638C24.303 6.971 19.31 2 13.152 2 6.992 2 2 6.97 2 13.102c0 7.202 7.5 12.94 10.043 15.639.293.31.67.565 1.109.565.439 0 .806-.268 1.108-.565z"/>
    </defs>
    <g fill="none" fill-rule="evenodd">
        <path fill="#FFF" fill-rule="nonzero" d="M15.242 29.738c-.611.602-1.259.968-2.09.968-.842 0-1.548-.39-2.128-1.005-.202-.215-3.446-3.316-4.613-4.574C2.701 21.127.6 17.295.6 13.102.6 6.196 6.22.6 13.152.6c6.93 0 12.551 5.596 12.551 12.502 0 4.281-2.15 8.206-5.91 12.224-.78.833-1.578 1.619-2.573 2.553a155.788 155.788 0 0 1-1.1 1.025c-.395.368-.655.615-.878.834z"/>
        <mask id="b" fill="#fff">
            <use xlink:href="#a"/>
        </mask>
        <use fill="#7449BF" fill-rule="nonzero" xlink:href="#a"/>
        <path stroke="#FFF" stroke-linejoin="round" d="M-2 25l3.59-1.91L6.38 25l4.44-3L21 23.09" mask="url(#b)" transform="scale(-1 1) rotate(15 0 -48.66)"/>
        <g mask="url(#b)">
            <g transform="translate(7.5 7)">
                <path stroke="#FFF" stroke-width="1.4" d="M.688 7.28s1.03-1.322 1.718-2.03c.394-.405.55-.42 1.031-.56l1.444-.42c.825-.21 1.65.21 1.925.98.596.793 1.077 1.26 1.444 1.4l2.406.63"/>
                <ellipse cx="6.188" cy="1.4" fill="#FFF" fill-rule="nonzero" rx="1.375" ry="1.4"/>
                <path fill="#FFF" fill-rule="nonzero" d="M4.537 4.27L3.85 7.49c-.138.49-.275.91 0 1.26l3.712 1.4-1.718-2.03.619-2.87-.482-.98H4.537z"/>
                <g fill="#FFF" fill-rule="nonzero">
                    <path d="M8.662 13.3l1.307-.35c-.275-.7-1.031-2.66-1.306-3.5L5.5 7.77l-1.1.84 2.201 1.12 1.099.56.962 3.01zM1.375 14l2.681-1.82.756-2.38-1.237-.49-.619 2.03-2.681 1.61z"/>
                </g>
            </g>
        </g>
    </g>
</svg>
