<svg xmlns="http://www.w3.org/2000/svg" width="26" height="31" viewBox="0 0 26 31">
    <g fill="none" fill-rule="evenodd">
        <path fill="#FFF" fill-rule="nonzero" d="M15.242 29.738c-.611.602-1.259.968-2.09.968-.842 0-1.548-.39-2.128-1.005-.202-.215-3.446-3.316-4.613-4.574C2.701 21.127.6 17.295.6 13.102.6 6.196 6.22.6 13.152.6c6.93 0 12.551 5.596 12.551 12.502 0 4.281-2.15 8.206-5.91 12.224-.78.833-1.578 1.619-2.573 2.553a155.788 155.788 0 0 1-1.1 1.025c-.395.368-.655.615-.878.834z"/>
        <path fill="#BF225F" fill-rule="nonzero" d="M14.26 28.74c2.74-2.698 10.043-8.436 10.043-15.638C24.303 6.971 19.31 2 13.152 2 6.992 2 2 6.97 2 13.102c0 7.202 7.5 12.94 10.043 15.639.293.31.67.565 1.109.565.439 0 .806-.268 1.108-.565z"/>
        <g transform="translate(8 7)">
            <path stroke="#FFF" stroke-width="1.6" d="M.77 8l1.076-1.68c.308-.48.692-.8 1.23-.96l1.616-.48c.923-.24 1.846.24 2.154 1.12l.462 1.04c.23.64.692 1.04 1.307 1.28L10 8.8"/>
            <ellipse cx="6.154" cy="1.6" fill="#FFF" fill-rule="nonzero" rx="1.538" ry="1.6"/>
            <path fill="#FFF" fill-rule="nonzero" d="M4.308 4.88l-.77 3.68c-.153.56.077 1.12.385 1.52l2.615 2.96-.769-3.76L6.462 6l-.539-1.12H4.308z"/>
            <g fill="#FFF" fill-rule="nonzero">
                <path d="M7.385 16H9c-.308-.8-1.077-2.8-1.385-3.76l-2.23-3.36-1.231.96 2.077 2.88L7.385 16zM2 16l1.77-2.08.615-1.92-1.154-1.36-.693 2.32L.231 16z"/>
            </g>
        </g>
    </g>
</svg>
