<svg xmlns="http://www.w3.org/2000/svg" xmlns:xlink="http://www.w3.org/1999/xlink" width="26" height="31" viewBox="0 0 26 31">
    <defs>
        <path id="a" d="M14.26 28.74c2.74-2.698 10.043-8.436 10.043-15.638C24.303 6.971 19.31 2 13.152 2 6.992 2 2 6.97 2 13.102c0 7.202 7.5 12.94 10.043 15.639.293.31.67.565 1.109.565.439 0 .806-.268 1.108-.565z"/>
    </defs>
    <g fill="none" fill-rule="evenodd">
        <path fill="#FFF" fill-rule="nonzero" d="M15.242 29.738c-.611.602-1.259.968-2.09.968-.842 0-1.548-.39-2.128-1.005-.202-.215-3.446-3.316-4.613-4.574C2.701 21.127.6 17.295.6 13.102.6 6.196 6.22.6 13.152.6c6.93 0 12.551 5.596 12.551 12.502 0 4.281-2.15 8.206-5.91 12.224-.78.833-1.578 1.619-2.573 2.553a155.788 155.788 0 0 1-1.1 1.025c-.395.368-.655.615-.878.834z"/>
        <mask id="b" fill="#fff">
            <use xlink:href="#a"/>
        </mask>
        <use fill="#496ABF" fill-rule="nonzero" xlink:href="#a"/>
        <g mask="url(#b)">
            <g transform="translate(7 8)">
                <path stroke="#FFF" stroke-width="1.4" d="M.692 7l.97-1.47c.276-.42.623-.7 1.107-.84l1.454-.42c.83-.21 1.662.21 1.939.98l.415.91c.208.56.623.91 1.177 1.12L9 7.7"/>
                <ellipse cx="5.538" cy="1.4" fill="#FFF" fill-rule="nonzero" rx="1.385" ry="1.4"/>
                <path fill="#FFF" fill-rule="nonzero" d="M3.877 4.27l-.692 3.22c-.139.49.069.98.346 1.33l2.354 2.59-.693-3.29.623-2.87-.484-.98H3.877z"/>
                <g fill="#FFF" fill-rule="nonzero">
                    <path d="M6.646 14H8.1c-.277-.7-.97-2.45-1.246-3.29L4.846 7.77l-1.108.84 1.87 2.52L6.646 14zM1.8 14l1.592-1.82.554-1.68-1.038-1.19-.623 2.03L.208 14z"/>
                </g>
            </g>
        </g>
        <g stroke="#FFF" stroke-linejoin="round" stroke-width=".686" mask="url(#b)">
            <path d="M18.41 10.76V7.143L17.307 6M18.41 7.143L19.512 6"/>
            <path d="M18.41 8.1v3.617l-1.103 1.143M18.41 11.717l1.102 1.143"/>
            <path d="M17.225 8.747l3.133 1.809 1.541-.383M20.302 10.591l.439 1.526"/>
            <path d="M19.595 10.077L16.462 8.27l-.439-1.526M16.518 8.304l-1.541.383"/>
            <path d="M17.225 10.077l3.133-1.808.439-1.526M20.302 8.304l1.541.383"/>
            <path d="M19.595 8.747l-3.133 1.809-1.541-.383M16.518 10.591l-.439 1.526"/>
        </g>
    </g>
</svg>
